<svg xmlns="http://www.w3.org/2000/svg" xmlns:xlink="http://www.w3.org/1999/xlink" width="676.073974609375" height="370" viewBox="0 0 676.073974609375 370" fill="none">
<path     fill="#000000"  d="M175.695 124.285L127.335 124.285L127.335 135.205L188.76 135.205L188.76 175.57L5.45998 175.57L5.45998 135.205L30.03 135.205L30.03 78.85L73.515 78.85L73.515 135.205L82.29 135.205L82.29 72.415L8.18998 72.415L8.18998 33.805L186.81 33.805L186.81 72.415L127.335 72.415L127.335 84.115L175.695 84.115L175.695 124.285Z">
</path>
<path     fill="#000000"  d="M221.965 179.665C219.235 168.355 215.725 156.167 215.725 156.167C212.215 143.98 205 132.67 205 132.67C215.335 131.11 221.282 126.722 221.282 126.722C227.23 122.335 230.74 114.34 230.74 114.34C233.665 107.905 234.737 95.7175 234.737 95.7175C235.81 83.53 235.907 66.76 235.907 66.76C236.005 49.99 235.81 29.905 235.81 29.905L283 29.905C283 35.56 283 40.9225 283 40.9225C283 46.285 282.805 51.55 282.805 51.55L316.735 51.55L316.735 28.54L364.315 28.54L364.315 51.55L394.735 51.55L394.735 88.795L281.05 88.795C280.66 93.865 280.075 98.545 280.075 98.545L381.085 98.545L381.085 179.08L331.945 179.08L331.945 137.935L269.545 137.935C268.96 139.105 268.375 140.08 268.375 140.08C262.72 149.635 256.577 157.142 256.577 157.142C250.435 164.65 242.147 170.11 242.147 170.11C233.86 175.57 221.965 179.665 221.965 179.665Z">
</path>
<path     fill="#000000"  d="M2.72998 340.875L23.01 340.875L23.01 314.55L6.04498 314.55L6.04498 288.615L20.085 288.615C15.6 285.105 10.92 281.985 10.92 281.985C6.23998 278.865 0.974976 276.33 0.974976 276.33C9.94498 275.94 15.99 275.55 15.99 275.55C22.035 275.16 27.105 274.38 27.105 274.38C20.28 272.625 14.1375 271.162 14.1375 271.162C7.99498 269.7 3.11998 268.53 3.11998 268.53L26.13 262.485L6.82498 262.485L6.82498 248.835L25.74 248.835C23.205 246.105 19.2075 243.375 19.2075 243.375C15.21 240.645 9.94498 237.33 9.94498 237.33C22.815 237.72 34.2225 237.915 34.2225 237.915C45.63 238.11 55.38 238.11 55.38 238.11C50.895 236.94 46.8975 235.77 46.8975 235.77C42.9 234.6 39.39 233.235 39.39 233.235L59.28 231.09L17.94 231.09L17.94 215.88L175.5 215.88L178.425 227.97C176.67 228.555 174.33 229.14 174.33 229.14C171.99 229.725 170.82 230.31 170.82 230.31C164.775 232.26 159.607 233.82 159.607 233.82C154.44 235.38 148.98 236.745 148.98 236.745C155.415 236.55 162.532 236.355 162.532 236.355C169.65 236.16 177.255 235.77 177.255 235.77C171.795 240.45 169.747 243.082 169.747 243.082C167.7 245.715 166.53 249.03 166.53 249.03L175.695 249.03L189.345 259.56C187.785 259.95 182.617 264.337 182.617 264.337C177.45 268.725 168.285 274.38 168.285 274.38C174.525 274.965 180.862 275.452 180.862 275.452C187.2 275.94 193.635 276.135 193.635 276.135C189.15 279.255 185.737 282.18 185.737 282.18C182.325 285.105 178.815 288.615 178.815 288.615L188.76 288.615L188.76 314.55L168.87 314.55L168.87 340.875L189.93 340.875L189.93 361.155L2.72998 361.155L2.72998 340.875ZM110.175 275.16C100.425 270.675 93.6 265.605 93.6 265.605L114.27 262.095L101.4 262.095L101.4 249.03L139.62 249.03C127.53 248.055 117.975 247.275 117.975 247.275C108.42 246.495 100.62 245.715 100.62 245.715C93.405 246.495 84.63 247.275 84.63 247.275C75.855 248.055 65.13 248.835 65.13 248.835L99.06 248.835C99.06 257.805 94.4775 264.142 94.4775 264.142C89.895 270.48 82.68 274.965 82.68 274.965C82.875 274.965 83.265 275.16 83.265 275.16C85.995 275.94 88.92 277.11 88.92 277.11C94.965 276.72 100.23 276.232 100.23 276.232C105.495 275.745 110.175 275.16 110.175 275.16ZM146.25 305.775L146.25 303.24L48.75 303.24L48.75 305.775L146.25 305.775ZM124.41 340.875L124.41 338.34L68.25 338.34L68.25 340.875L124.41 340.875ZM124.41 328.98L124.41 326.445L68.25 326.445L68.25 328.98L124.41 328.98ZM124.41 317.28L124.41 314.745L68.25 314.745L68.25 317.28L124.41 317.28ZM71.175 288.615L105.69 288.615C101.985 286.665 98.475 284.91 98.475 284.91C94.965 283.155 90.87 281.205 90.87 281.205L71.175 288.615ZM123.435 262.095C131.43 265.8 139.815 268.53 139.815 268.53C146.835 265.995 153.66 262.095 153.66 262.095L123.435 262.095ZM56.94 267.36C59.085 266.58 60.84 265.41 60.84 265.41C62.595 264.24 64.155 262.485 64.155 262.485L36.465 262.485C41.73 263.655 46.8 264.825 46.8 264.825C51.87 265.995 56.94 267.36 56.94 267.36ZM102.375 233.82C106.665 233.235 110.857 232.65 110.857 232.65C115.05 232.065 119.145 231.09 119.145 231.09L79.755 231.09C84.825 232.26 90.5775 232.845 90.5775 232.845C96.33 233.43 102.375 233.82 102.375 233.82ZM58.695 284.52C54.6 285.69 50.31 286.762 50.31 286.762C46.02 287.835 41.925 288.615 41.925 288.615L67.665 288.615C63.765 286.665 58.695 284.52 58.695 284.52ZM153.66 288.615C147.225 287.25 140.985 285.69 140.985 285.69C135.72 287.25 129.285 288.615 129.285 288.615L153.66 288.615Z">
</path>
<path     fill="#000000"  d="M388.885 277.305L354.565 277.695C354.955 279.645 355.735 282.765 355.735 282.765C355.93 283.935 356.125 285.105 356.125 285.105L388.69 285.105L388.69 310.845L374.26 310.845C377.38 312.21 380.305 313.185 380.305 313.185C386.155 315.135 393.76 316.11 393.76 316.11C393.76 327.81 392.297 334.732 392.297 334.732C390.835 341.655 388.202 348.675 388.202 348.675C385.57 355.695 382.06 359.595 382.06 359.595C378.55 363.495 374.26 363.495 374.26 363.495C361.39 363.495 351.64 355.695 351.64 355.695C349.3 353.94 347.155 351.795 347.155 351.795L348.91 354.135L319.66 363.105L309.91 347.7L309.52 347.895C284.56 355.695 263.89 362.13 263.89 362.13C262.72 351.99 261.355 347.115 261.355 347.115C259.99 342.435 256.675 335.61 256.675 335.61C256.285 339.12 256.09 342.435 256.09 342.435C254.92 353.355 252.775 363.885 252.775 363.885C238.93 359.205 227.717 356.28 227.717 356.28C216.505 353.355 205.39 351.6 205.39 351.6C208.705 343.215 210.46 334.537 210.46 334.537C212.215 325.86 212.995 314.355 212.995 314.355C213.775 302.85 213.97 287.347 213.97 287.347C214.165 271.845 214.165 249.81 214.165 249.81L214.165 218.415L291.19 218.415L291.19 212.76L337.015 212.76L337.015 218.61L393.175 218.61L392.59 250.395L258.235 250.395L258.235 267.165C258.235 282.18 258.137 295.245 258.137 295.245C258.04 308.31 257.65 320.01 257.65 320.01C257.26 327.615 256.675 334.83 256.675 334.83L264.865 332.49L264.865 253.125C316.345 253.515 334.285 253.515 334.285 253.515C352.225 253.515 387.91 253.71 387.91 253.71L388.885 277.305ZM306.01 320.79C311.08 318.84 321.025 314.55 321.025 314.55C321.805 323.52 325.12 332.295 325.12 332.295L331.75 329.955L336.43 336.585C335.26 334.245 333.895 331.515 333.895 331.515C329.605 322.545 326.095 310.845 326.095 310.845L306.01 310.845L306.01 320.79ZM306.01 285.105L320.05 285.105C319.27 280.815 318.49 278.28 318.49 278.28L306.01 278.28L306.01 285.105ZM361.585 310.845C362.755 315.135 364.12 318.06 364.12 318.06C366.07 323.13 367.045 324.885 367.045 324.885C367.045 325.08 367.24 325.08 367.24 325.08C367.435 325.08 368.02 321.18 368.02 321.18C368.41 317.67 367.825 310.845 367.825 310.845L361.585 310.845Z">
</path>
<path     fill="#000000"  d="M454.276 321.696L459.064 321.696L459.064 310.572C459.064 308.016 458.632 304.344 458.38 301.824L458.524 301.824L460.648 308.088L464.788 319.284L467.848 319.284L471.952 308.088L474.112 301.824L474.292 301.824C474.004 304.344 473.608 308.016 473.608 310.572L473.608 321.696L478.468 321.696L478.468 295.02L472.564 295.02L468.1 307.548C467.56 309.168 467.092 310.932 466.516 312.624L466.336 312.624C465.796 310.932 465.292 309.168 464.716 307.548L460.18 295.02L454.276 295.02L454.276 321.696Z">
</path>
<path     fill="#000000"  d="M497.044 322.2C503.524 322.2 507.304 318.528 507.304 309.708L507.304 295.02L502.192 295.02L502.192 310.176C502.192 315.72 500.14 317.592 497.044 317.592C493.912 317.592 491.968 315.72 491.968 310.176L491.968 295.02L486.676 295.02L486.676 309.708C486.676 318.528 490.492 322.2 497.044 322.2Z">
</path>
<path     fill="#000000"  d="M515.512 321.696L531.676 321.696L531.676 317.232L520.84 317.232L520.84 295.02L515.512 295.02L515.512 321.696Z">
</path>
<path     fill="#000000"  d="M543.412 321.696L548.74 321.696L548.74 299.484L556.264 299.484L556.264 295.02L535.924 295.02L535.924 299.484L543.412 299.484L543.412 321.696Z">
</path>
<path     fill="#000000"  d="M562.42 321.696L567.748 321.696L567.748 295.02L562.42 295.02L562.42 321.696Z">
</path>
<path     fill="#000000"  d="M576.1 321.696L581.428 321.696L581.428 312.228L584.992 312.228C590.716 312.228 595.288 309.492 595.288 303.408C595.288 297.108 590.752 295.02 584.848 295.02L576.1 295.02L576.1 321.696ZM581.428 308.016L581.428 299.268L584.452 299.268C588.124 299.268 590.068 300.312 590.068 303.408C590.068 306.468 588.304 308.016 584.632 308.016L581.428 308.016Z">
</path>
<path     fill="#000000"  d="M601.912 321.696L618.076 321.696L618.076 317.232L607.24 317.232L607.24 295.02L601.912 295.02L601.912 321.696Z">
</path>
<path     fill="#000000"  d="M629.056 321.696L634.348 321.696L634.348 311.94L642.376 295.02L636.832 295.02L634.168 301.536C633.376 303.516 632.62 305.388 631.792 307.44L631.648 307.44C630.82 305.388 630.1 303.516 629.344 301.536L626.68 295.02L621.028 295.02L629.056 311.94L629.056 321.696Z">
</path>
<path     fill="#000000"  d="M461.62 361.164C466.552 361.164 469.792 358.248 469.792 354.252C469.792 350.22 467.2 348.672 464.248 347.34L460.252 345.54C458.416 344.712 455.68 343.524 455.68 340.248C455.68 337.296 458.092 335.352 461.728 335.352C464.392 335.352 466.516 336.468 468.028 338.088L468.856 337.188C467.344 335.532 464.896 334.092 461.728 334.092C457.48 334.092 454.312 336.612 454.312 340.392C454.312 344.244 457.372 345.792 459.64 346.8L463.636 348.6C466.264 349.788 468.46 350.868 468.46 354.36C468.46 357.636 465.796 359.904 461.62 359.904C458.488 359.904 455.716 358.5 453.808 356.268L452.908 357.204C454.888 359.508 457.768 361.164 461.62 361.164Z">
</path>
<path     fill="#000000"  d="M482.896 360.696L484.3 360.696L484.3 335.748L492.724 335.748L492.724 334.56L474.472 334.56L474.472 335.748L482.896 335.748L482.896 360.696Z">
</path>
<path     fill="#000000"  d="M508.168 361.164C512.416 361.164 516.844 359.004 516.844 350.904L516.844 334.56L515.548 334.56L515.548 350.616C515.548 357.78 512.02 359.904 508.168 359.904C504.388 359.904 500.932 357.78 500.932 350.616L500.932 334.56L499.6 334.56L499.6 350.904C499.6 359.004 503.92 361.164 508.168 361.164Z">
</path>
<path     fill="#000000"  d="M526.456 360.696L532.36 360.696C540.424 360.696 544.06 355.332 544.06 347.556C544.06 339.744 540.424 334.56 532.324 334.56L526.456 334.56L526.456 360.696ZM527.788 359.508L527.788 335.748L532.144 335.748C539.56 335.748 542.656 340.644 542.656 347.556C542.656 354.432 539.56 359.508 532.144 359.508L527.788 359.508Z">
</path>
<path     fill="#000000"  d="M552.052 360.696L553.384 360.696L553.384 334.56L552.052 334.56L552.052 360.696Z">
</path>
<path     fill="#000000"  d="M571.996 361.164C578.188 361.164 582.616 355.8 582.616 347.556C582.616 339.312 578.188 334.092 571.996 334.092C565.804 334.092 561.376 339.312 561.376 347.556C561.376 355.8 565.804 361.164 571.996 361.164ZM571.996 359.904C566.488 359.904 562.78 355.044 562.78 347.556C562.78 340.068 566.488 335.352 571.996 335.352C577.504 335.352 581.212 340.068 581.212 347.556C581.212 355.044 577.504 359.904 571.996 359.904Z">
</path>
<rect x="451" y="29" width="205.42635917663574" height="202.38799285888672"   fill="#000000" >
</rect>
<rect x="512.760009765625" y="102.8699951171875" width="163.3139419555664" height="160.8984603881836"   fill="#F0F0F0" >
</rect>
</svg>
